<svg width="22" height="22" viewBox="0 0 22 22" fill="none" xmlns="http://www.w3.org/2000/svg">
<path d="M18.8576 14.9287H17.2861V18.8573H18.8576V14.9287Z" fill="white"/>
<path d="M15.714 11H14.1426V18.8571H15.714V11Z" fill="white"/>
<path d="M7.07115 18.8571C6.0296 18.8559 5.03107 18.4416 4.29459 17.7051C3.5581 16.9687 3.1438 15.9701 3.14258 14.9286H4.71401C4.71401 15.3948 4.85225 15.8505 5.11126 16.2381C5.37026 16.6258 5.7384 16.9279 6.16911 17.1063C6.59982 17.2847 7.07376 17.3314 7.53101 17.2404C7.98825 17.1495 8.40825 16.925 8.7379 16.5953C9.06755 16.2657 9.29205 15.8457 9.383 15.3884C9.47395 14.9312 9.42727 14.4572 9.24887 14.0265C9.07046 13.5958 8.76834 13.2277 8.38071 12.9687C7.99308 12.7097 7.53735 12.5714 7.07115 12.5714V11C8.11307 11 9.11232 11.4139 9.84907 12.1507C10.5858 12.8874 10.9997 13.8866 10.9997 14.9286C10.9997 15.9705 10.5858 16.9697 9.84907 17.7065C9.11232 18.4432 8.11307 18.8571 7.07115 18.8571Z" fill="white"/>
<path d="M20.4286 0H1.57143C1.15479 0.000416017 0.75533 0.16611 0.46072 0.46072C0.16611 0.75533 0.000416017 1.15479 0 1.57143V20.4286C0.000478291 20.8452 0.166193 21.2446 0.460789 21.5392C0.755385 21.8338 1.15481 21.9995 1.57143 22H20.4286C20.8452 21.9994 21.2445 21.8337 21.5391 21.5391C21.8337 21.2445 21.9994 20.8452 22 20.4286V1.57143C21.9995 1.15481 21.8338 0.755385 21.5392 0.460789C21.2446 0.166193 20.8452 0.000478291 20.4286 0ZM20.4286 7.07143H9.42857V1.57143H20.4286V7.07143ZM7.85714 1.57143V7.07143H1.57143V1.57143H7.85714ZM1.57143 20.4286V8.64286H20.4291L20.4301 20.4286H1.57143Z" fill="white"/>
</svg>
