<svg width="160" height="37" viewBox="0 0 160 37" fill="none" xmlns="http://www.w3.org/2000/svg">
<path d="M42.4248 27.1896V11.1451H44.1568L53.3271 23.5994V11.1451H55.3037V27.1896H53.5342L44.4015 14.7236V27.1896H42.4248Z" fill="white"/>
<path d="M80.4061 23.3839V25.9719C79.5909 26.4613 78.7588 26.8332 77.9131 27.0877C77.0675 27.3422 76.2286 27.4714 75.3999 27.4714C74.6017 27.4714 73.8409 27.35 73.1176 27.1112C72.3941 26.8684 71.7115 26.5122 71.0661 26.0384C70.0337 25.2593 69.2286 24.261 68.6547 23.0512C68.0807 21.8374 67.792 20.5219 67.792 19.0969C67.792 18.0202 67.9822 16.9748 68.3593 15.9608C68.7362 14.9507 69.2762 14.0619 69.9726 13.3062C70.7163 12.4958 71.5484 11.889 72.4688 11.4896C73.3926 11.0864 74.4149 10.8867 75.5357 10.8867C76.3202 10.8867 77.0946 10.9885 77.8656 11.196C78.6332 11.4035 79.4415 11.7284 80.2838 12.1747V14.6688C79.4008 14.1167 78.5721 13.7096 77.7942 13.4433C77.0199 13.181 76.2659 13.0479 75.5357 13.0479C73.9089 13.0479 72.5673 13.6312 71.5042 14.7979C70.4412 15.9646 69.9113 17.425 69.9113 19.1829C69.9113 20.9213 70.4344 22.3699 71.4805 23.5366C72.5265 24.7034 73.8375 25.2867 75.4168 25.2867C76.2286 25.2867 77.0471 25.1301 77.8758 24.8169C78.7079 24.5037 79.5502 24.0261 80.4061 23.3839Z" fill="white"/>
<path d="M82.6035 11.1451H84.5803V20.3536C84.5803 21.3794 84.6277 22.1076 84.7229 22.5344C84.8213 22.9612 84.981 23.3331 85.2086 23.6464C85.6195 24.2061 86.1052 24.6212 86.6689 24.8991C87.2328 25.1732 87.8747 25.3102 88.5914 25.3102C89.797 25.3102 90.7684 24.9501 91.5054 24.2336C92.2424 23.5132 92.6092 22.5657 92.6092 21.3872V11.1451H94.586V21.4577C94.586 23.243 94.0323 24.6916 92.9251 25.8036C91.8178 26.9155 90.3744 27.4715 88.5914 27.4715C87.5351 27.4715 86.5841 27.2561 85.7349 26.8255C84.8859 26.3909 84.1727 25.7605 83.5885 24.9266C83.2285 24.4294 82.9772 23.8773 82.8277 23.2666C82.6783 22.6557 82.6035 21.7162 82.6035 20.4476V11.1451Z" fill="white"/>
<path d="M99.4768 20.1188V25.0989H102.126C103.094 25.0989 103.8 24.9031 104.245 24.5077C104.694 24.1122 104.918 23.4976 104.918 22.6558C104.918 21.7827 104.666 21.1406 104.167 20.7334C103.668 20.3223 102.88 20.1188 101.807 20.1188H99.4768ZM97.5 27.1896V11.1451H101.576C102.965 11.1451 104.035 11.5093 104.785 12.2336C105.539 12.9618 105.916 13.9915 105.916 15.3305C105.916 16.1566 105.746 16.8457 105.41 17.3938C105.071 17.9458 104.554 18.3687 103.858 18.6662C104.87 18.9442 105.655 19.4454 106.208 20.1697C106.762 20.8978 107.037 21.7788 107.037 22.8203C107.037 24.1514 106.616 25.2124 105.77 26.0032C104.924 26.7941 103.78 27.1896 102.333 27.1896H97.5ZM99.4768 18.0281H100.822C101.837 18.0281 102.591 17.8167 103.08 17.3977C103.573 16.9788 103.817 16.3367 103.817 15.4715C103.817 14.6845 103.624 14.1089 103.237 13.7527C102.846 13.3925 102.228 13.2124 101.379 13.2124H99.4768V18.0281Z" fill="white"/>
<path d="M111.955 20.4007H116.292L114.094 14.6218L111.955 20.4007ZM107.366 27.1896L113.398 11.1451H114.848L120.958 27.1896H118.9L117.107 22.4679H111.177L109.407 27.1896H107.366Z" fill="white"/>
<path d="M124.284 27.1896V13.2359H119.169V11.1451H131.375V13.2359H126.261V27.1896H124.284Z" fill="white"/>
<path d="M134.367 19.1829C134.367 20.0012 134.5 20.7843 134.765 21.5242C135.03 22.2642 135.414 22.922 135.909 23.4975C136.395 24.0691 136.962 24.5116 137.618 24.8209C138.27 25.1301 138.952 25.2867 139.662 25.2867C140.389 25.2867 141.075 25.1341 141.717 24.8325C142.356 24.5311 142.93 24.0848 143.432 23.4975C143.928 22.922 144.312 22.2642 144.58 21.5242C144.849 20.7843 144.984 20.0012 144.984 19.1829C144.984 18.3647 144.852 17.5934 144.587 16.8612C144.322 16.1331 143.928 15.4635 143.412 14.8606C142.916 14.2694 142.345 13.823 141.7 13.5137C141.058 13.2044 140.379 13.0479 139.662 13.0479C138.969 13.0479 138.304 13.2044 137.655 13.5177C137.01 13.8309 136.426 14.2772 135.909 14.8606C135.414 15.4165 135.03 16.0703 134.765 16.8221C134.5 17.5699 134.367 18.3568 134.367 19.1829ZM132.248 19.0969C132.248 18.028 132.438 16.9866 132.815 15.9803C133.192 14.9702 133.732 14.0775 134.429 13.3062C135.138 12.5193 135.94 11.9203 136.837 11.5053C137.73 11.0942 138.674 10.8867 139.662 10.8867C140.668 10.8867 141.625 11.0942 142.532 11.5131C143.436 11.9281 144.234 12.5271 144.923 13.3062C145.647 14.1167 146.19 15.0211 146.557 16.0117C146.92 17.0061 147.104 18.0867 147.104 19.2495C147.104 20.3419 146.917 21.3911 146.54 22.3973C146.166 23.4036 145.633 24.2883 144.944 25.0518C144.22 25.8466 143.415 26.4495 142.522 26.8567C141.629 27.2678 140.674 27.4714 139.662 27.4714C138.674 27.4714 137.726 27.26 136.82 26.841C135.916 26.4182 135.118 25.8231 134.429 25.0518C133.712 24.2492 133.168 23.3409 132.802 22.3347C132.431 21.3246 132.248 20.2439 132.248 19.0969Z" fill="white"/>
<path d="M149.302 27.1896V11.1451H153.377C154.784 11.1451 155.87 11.5288 156.635 12.2923C157.399 13.0558 157.779 14.1402 157.779 15.538C157.779 16.5951 157.569 17.4446 157.151 18.0868C156.73 18.7288 156.071 19.2104 155.164 19.5315C155.398 19.6764 155.616 19.8682 155.823 20.1109C156.03 20.3497 156.295 20.7531 156.621 21.3207L160 27.1896H157.592L155.205 22.9808C154.488 21.7123 153.911 20.9018 153.469 20.5533C153.031 20.201 152.505 20.0248 151.897 20.0248H151.299V27.1896H149.302ZM151.299 18.0986H152.949C153.877 18.0986 154.569 17.8911 155.031 17.4799C155.49 17.065 155.721 16.4346 155.721 15.5849C155.721 14.7119 155.504 14.0815 155.065 13.6861C154.627 13.2907 153.921 13.095 152.949 13.095H151.299V18.0986Z" fill="white"/>
<path d="M39.0313 8.95136C40.2173 8.95136 41.1788 8.00471 41.1788 6.83695C41.1788 5.66919 40.2173 4.72253 39.0313 4.72253C37.8453 4.72253 36.8838 5.66919 36.8838 6.83695C36.8838 8.00471 37.8453 8.95136 39.0313 8.95136Z" fill="#FF6583"/>
<path d="M40.0227 10.8917H38.0742V26.954H40.0227V10.8917Z" fill="white"/>
<path d="M0 26.9308V10.9197H2.3773V26.9308H0Z" fill="white"/>
<path d="M10.4795 26.9308V13.006H4.39062V10.9197H18.9214V13.006H12.8326V26.9308H10.4795Z" fill="white"/>
<path d="M21.8584 21.6057C23.0445 21.6057 24.0059 20.659 24.0059 19.4912C24.0059 18.3235 23.0445 17.3768 21.8584 17.3768C20.6724 17.3768 19.7109 18.3235 19.7109 19.4912C19.7109 20.659 20.6724 21.6057 21.8584 21.6057Z" fill="white"/>
<path d="M46.4279 36.5C56.5245 36.5 64.7094 28.4411 64.7094 18.5C64.7094 8.55888 56.5245 0.5 46.4279 0.5C36.3314 0.5 28.1465 8.55888 28.1465 18.5C28.1465 28.4411 36.3314 36.5 46.4279 36.5Z" stroke="white" stroke-miterlimit="22.9256"/>
</svg>
